<?xml version="1.0" standalone="no"?>
<!DOCTYPE svg PUBLIC "-//W3C//DTD SVG 20010904//EN"
 "http://www.w3.org/TR/2001/REC-SVG-20010904/DTD/svg10.dtd">
<svg version="1.0" xmlns="http://www.w3.org/2000/svg"
 width="76.000000pt" height="76.000000pt" viewBox="0 0 76.000000 76.000000"
 preserveAspectRatio="xMidYMid meet">
<metadata>
Created by potrace 1.11, written by Peter Selinger 2001-2013
</metadata>
<g transform="translate(0.000000,76.000000) scale(0.100000,-0.100000)"
fill="#000000" stroke="none">
<path d="M0 590 l0 -170 34 0 c61 0 64 4 47 60 -12 40 -19 50 -40 52 -22 2
-26 8 -26 33 0 29 2 30 55 35 l55 5 6 52 c4 29 10 64 13 78 l6 25 -75 0 -75 0
0 -170z"/>
<path d="M216 738 c-3 -13 -8 -44 -11 -70 -6 -43 -4 -48 14 -48 11 0 23 -4 26
-10 3 -5 12 -10 20 -10 14 0 20 20 30 108 l7 52 -41 0 c-34 0 -41 -4 -45 -22z"/>
<path d="M366 703 c-4 -31 -9 -67 -12 -79 -5 -21 -2 -23 38 -26 40 -3 43 -5
45 -33 3 -57 5 -60 17 -20 15 46 31 51 49 15 9 -16 20 -24 33 -22 10 2 39 4
64 5 l45 2 3 -72 3 -73 -33 -2 c-62 -3 -79 1 -98 24 l-19 23 -1 -22 c0 -16 -6
-23 -20 -23 -14 0 -20 7 -20 21 0 21 -1 21 -20 -4 -11 -14 -20 -32 -20 -41 0
-12 -10 -16 -34 -16 -25 0 -35 -5 -39 -20 -7 -27 -25 -25 -38 4 -11 23 -47 46
-72 46 -7 0 -28 -11 -48 -24 -32 -22 -36 -30 -46 -95 -13 -81 -25 -101 -60
-101 -23 0 -25 3 -20 30 4 16 9 59 13 95 l7 65 -42 0 -41 0 0 -180 0 -180 380
0 380 0 0 380 0 380 -194 0 -193 0 -7 -57z m372 -175 c2 -9 -5 -19 -17 -23
-18 -5 -21 -15 -21 -56 0 -43 -3 -50 -17 -47 -14 2 -19 15 -21 61 -2 36 2 64
9 73 16 19 63 14 67 -8z m-446 -223 c3 -14 1 -25 -3 -25 -5 0 -9 11 -9 25 0
14 2 25 4 25 2 0 6 -11 8 -25z m-32 -61 c5 -64 15 -71 22 -16 5 40 23 29 29
-18 5 -42 14 -41 21 4 5 34 23 23 26 -17 2 -20 8 -35 13 -32 5 4 7 11 3 16 -7
13 15 41 27 33 5 -3 9 -36 9 -74 0 -87 -19 -110 -92 -110 -44 0 -51 4 -113 61
-36 34 -65 65 -65 70 0 20 30 20 52 -1 l23 -21 3 68 c3 86 10 115 25 110 7 -2
14 -32 17 -73z"/>
<path d="M186 522 c-2 -4 -7 -24 -11 -45 -7 -38 -3 -43 35 -37 27 3 50 32 50
62 0 25 -3 28 -34 28 -19 0 -37 -3 -40 -8z"/>
<path d="M362 498 c-30 -30 3 -77 40 -57 30 16 16 69 -17 69 -6 0 -16 -5 -23
-12z"/>
<path d="M550 491 c-13 -26 4 -64 27 -59 25 5 40 35 27 56 -16 25 -41 26 -54
3z"/>
</g>
</svg>
